<svg xmlns="http://www.w3.org/2000/svg" viewBox="935.464 6960.864 72.436 72.437">
	<defs>
		<style>
			.svg-color-filling
				{
					fill: #D9AAAA;
				}
		</style>
	</defs>
	<path class="svg-color-filling" d="M11.048,3H67.388a8.048,8.048,0,0,1,8.048,8.048V67.388a8.048,8.048,0,0,1-8.048,8.049H11.048A8.048,8.048,0,0,1,3,67.388V11.048A8.048,8.048,0,0,1,11.048,3m52.315,8.048H53.3A14.085,14.085,0,0,0,39.218,25.133V35.194H31.17V47.267h8.048v28.17H51.291V47.267H63.364V35.194H51.291V27.145a4.024,4.024,0,0,1,4.024-4.024h8.048Z" transform="translate(932.464 6957.864)"/>
</svg>
