<svg xmlns="http://www.w3.org/2000/svg" viewBox="1076.443 6962.162 65.796 70.424">
	<defs>
		<style>
			.svg-color-filling
				{
					fill: #EABBBB;
				}
		</style>
	</defs>
	<path class="svg-color-filling" d="M21.081,2H48.715C59.243,2,67.8,11.155,67.8,22.423V52c0,11.279-8.543,20.423-19.081,20.423H21.081C10.554,72.424,2,63.269,2,52V22.423C2,11.144,10.543,2,21.081,2m-.658,7.042c-6.541,0-11.843,5.675-11.843,12.676V52.705c0,7.007,5.3,12.676,11.843,12.676h28.95c6.541,0,11.843-5.675,11.843-12.676V21.719c0-7.007-5.3-12.676-11.843-12.676H20.423M52.17,14.324a4.264,4.264,0,0,1,4.112,4.4,4.122,4.122,0,1,1-8.225,0,4.264,4.264,0,0,1,4.112-4.4M34.9,19.606c9.085,0,16.449,7.883,16.449,17.606S43.983,54.818,34.9,54.818,18.449,46.936,18.449,37.212,25.814,19.606,34.9,19.606m0,7.042c-5.451,0-9.869,4.729-9.869,10.564S29.447,47.776,34.9,47.776s9.869-4.73,9.869-10.564S40.349,26.648,34.9,26.648Z" transform="translate(1074.443 6960.162)"/>
</svg>
