<?xml version="1.0" encoding="utf-8"?>
<!-- Generator: Adobe Illustrator 21.0.0, SVG Export Plug-In . SVG Version: 6.00 Build 0)  -->
<svg version="1.1" xmlns="http://www.w3.org/2000/svg" xmlns:xlink="http://www.w3.org/1999/xlink" x="0px" y="0px"
	 viewBox="0 0 2500 360">
<style type="text/css">
	.st0{fill:#FFFFFF;}
	.st1{fill:none;stroke:#000000;stroke-miterlimit:10;}
</style>
<g id="K">
	<polygon points="2231.7,46.3 2309.5,46.3 2309.5,96.1 2332.6,46.3 2420.2,46.3 2352.3,164.7 2422.4,297.7 2335.8,297.7 
		2310.4,239.7 2309.9,297.7 2231.7,297.7 	"/>
	<circle class="st0" cx="2271.3" cy="85.8" r="16.1"/>
	<circle class="st0" cx="2271.3" cy="141.7" r="16.1"/>
	<circle class="st0" cx="2271.3" cy="197.6" r="16.1"/>
	<circle class="st0" cx="2271.3" cy="253.5" r="16.1"/>
	<circle class="st0" cx="2355.4" cy="85.8" r="16.1"/>
	<circle class="st0" cx="2321" cy="144.6" r="16.1"/>
	<circle class="st0" cx="2337.1" cy="202.4" r="16.1"/>
	<circle class="st0" cx="2364.6" cy="260.3" r="16.1"/>
</g>
<g id="C">
	<path d="M2127.8,93.9c-17.6,16.7-35.1,33.3-52.7,50c-2.3-4.4-6.1-10.6-12-16.9c-4.1-4.4-8.6-9.2-16.1-12.9
		c-10.8-5.4-20.9-5-27.5-4.7c-5.5,0.2-12.6,0.5-20.8,4.1c-12.4,5.4-19,14.8-21.5,18.3c-10,14.5-10.1,29.6-10.1,37.9
		c0,6.4,0.1,16.4,5.4,27.8c4.7,10,11.1,16,12.9,17.7c2,1.8,8.7,7.5,19.3,11c17.8,5.9,33.3,1.1,38.5-0.6c6.5-2.1,18.3-6.2,27.1-17.7
		c4.2-5.4,6.4-10.8,7.6-14.5l55.9,40.4c-3.7,7.9-10.3,19.3-21.5,30.6c-2.9,2.9-13.2,13-29.7,21.5c-27.1,13.9-52.3,14-62.5,13.9
		c-13.3-0.1-41-0.7-69.7-18.6c-33.7-21-46.5-52-50.2-61.2c-8.9-22.3-9.1-41.4-9.2-50.5c0-9.9,0.1-31.9,11.4-57.1
		c4.6-10.3,15.3-33.6,40.1-50.5c14.9-10.2,28-15.8,40.7-19.4c7.8-2.2,21.6-3.9,38.5-4.3c16.7-0.4,29.8,2.2,36.3,3.8
		c10.7,2.6,22.5,5.3,37.8,16.5c6.5,4.8,19.9,14.6,28.7,29.5L2127.8,93.9z"/>
	<circle class="st0" cx="2079.1" cy="95.6" r="16.1"/>
	<circle class="st0" cx="2024.5" cy="79.5" r="16.1"/>
	<circle class="st0" cx="1963.8" cy="95.6" r="16.1"/>
	<circle class="st0" cx="1931.5" cy="147.2" r="16.1"/>
	<circle class="st0" cx="1940.4" cy="203" r="16.1"/>
	<circle class="st0" cx="1972.6" cy="245.6" r="16.1"/>
	<circle class="st0" cx="2028.5" cy="259.7" r="16.1"/>
	<circle class="st0" cx="2079.1" cy="243.6" r="16.1"/>
</g>
<g id="A">
	<g>
		<g>
			<path d="M1743.2,47.4l87.6,251.5h-82.1l-7.6-25h-80.4l-7.6,25h-83.7l88-251.1L1743.2,47.4z M1722.1,208.9l-22-71.2l-21.5,71.2
				H1722.1z"/>
		</g>
	</g>
	<circle class="st0" cx="1700.5" cy="77.3" r="16.1"/>
	<circle class="st0" cx="1664.1" cy="138.6" r="16.1"/>
	<circle class="st0" cx="1642.6" cy="198.4" r="16.1"/>
	<circle class="st0" cx="1620.8" cy="258.2" r="16.1"/>
	<circle class="st0" cx="1738.2" cy="138.6" r="16.1"/>
	<circle class="st0" cx="1759.9" cy="198.4" r="16.1"/>
	<circle class="st0" cx="1783.7" cy="258.2" r="16.1"/>
	<circle class="st0" cx="1700.5" cy="237.9" r="16.1"/>
</g>
<g id="L">
	<polygon points="1339.3,47.6 1417.6,47.6 1417.6,233.5 1476.8,233.5 1476.8,298.7 1339.3,298.7 	"/>
	<circle class="st0" cx="1378.6" cy="85.3" r="16.1"/>
	<circle class="st0" cx="1378.6" cy="144.6" r="16.1"/>
	<circle class="st0" cx="1378.6" cy="203.8" r="16.1"/>
	<circle class="st0" cx="1378.6" cy="265.8" r="16.1"/>
	<circle class="st0" cx="1444.3" cy="265.8" r="16.1"/>
</g>
<g id="B">
	<g>
		<g>
			<path d="M1164.2,219.6v-3c0-4.2-1.4-8.3-4.2-11.5c0,0,0-0.1-0.1-0.1c-2-2.2-4.2-3.7-6.3-4.7c-2.8-1.4-6-2-9.2-2l-10.6-0.1v40.2
				h11c4.9,0,9.8-1.7,13.4-5.1c0.2-0.2,0.5-0.5,0.8-0.7l0.1-0.1C1162.4,229,1164.2,224.4,1164.2,219.6z M1143.8,142.2
				c1.8,0,6.5,0,11.2-3.2c0,0,0.1,0,0.1-0.1c4.1-2.8,6.5-7.5,6.5-12.5v-5.1c0-4-1.4-8-4.2-11c-0.2-0.2-0.4-0.4-0.6-0.6
				c-4.4-4.2-8.5-4.9-10.9-4.9h-12.1v37.3L1143.8,142.2L1143.8,142.2z M1235.6,198.4c6.1,16.4,3.7,30.7,2,39.9
				c-1.5,8.6-3.5,20.3-12.3,32.1c-10.9,14.5-25.3,20.1-32.9,23c-11.7,4.5-22.1,5.6-28.8,5.8h-103.1V47.1l99.3-0.1
				c5.4,0,10.7,0.4,16,1.4c11,2,17.6,4.9,24.1,8.7c5,3,22.6,12.3,31.5,34.8c6.8,17.2,4.4,32.3,3.5,37.6c-1,5.6-3,16.9-11.5,28.1
				c-3.8,5.1-7.9,8.6-10.8,10.9C1218.4,172.7,1229.6,182.3,1235.6,198.4z"/>
		</g>
		<g>
			<path class="st1" d="M1161.6,121.3v5.1c0,5-2.4,9.7-6.5,12.5l-0.1,0.1c-4.7,3.1-9.5,3.2-11.2,3.2h-10v-37.4h12.2
				c2.4,0,6.4,0.7,10.9,4.9c0.2,0.2,0.4,0.4,0.6,0.6C1160.2,113.3,1161.6,117.3,1161.6,121.3z"/>
			<path class="st1" d="M1164.2,216.5v3c0,4.8-1.8,9.5-5.1,12.9l-0.1,0.1c-0.2,0.2-0.5,0.5-0.8,0.7c-3.6,3.4-8.5,5.1-13.4,5.1h-11
				v-40.2l10.6,0.1c3.2,0,6.3,0.7,9.2,2c2.1,1,4.3,2.5,6.3,4.7c0,0,0,0.1,0.1,0.1C1162.7,208.2,1164.2,212.3,1164.2,216.5z"/>
		</g>
	</g>
	<circle class="st0" cx="1097.1" cy="84.2" r="16.1"/>
	<circle class="st0" cx="1097.1" cy="143.2" r="16.1"/>
	<circle class="st0" cx="1097.1" cy="201.9" r="16.1"/>
	<circle class="st0" cx="1098.6" cy="260.6" r="16.1"/>
	<circle class="st0" cx="1194.3" cy="100.3" r="16.1"/>
	<circle class="st0" cx="1167.7" cy="173.1" r="16.1"/>
	<circle class="st0" cx="1194.3" cy="245.9" r="16.1"/>
</g>
<g id="E">
	<polygon points="678.8,47 829.5,47 829.5,110.1 757.2,110.1 757.2,138.9 829.5,138.9 829.5,202.8 757.2,202.8 757.2,233.5 
		829.5,233.5 829.5,298.7 678.8,298.7 	"/>
	<circle class="st0" cx="787.3" cy="77.9" r="16.1"/>
	<circle class="st0" cx="787.3" cy="172.9" r="16.1"/>
	<circle class="st0" cx="787.3" cy="267.8" r="16.1"/>
	<circle class="st0" cx="720.5" cy="77.9" r="16.1"/>
	<circle class="st0" cx="720.5" cy="140.4" r="16.1"/>
	<circle class="st0" cx="720.5" cy="202.9" r="16.1"/>
	<circle class="st0" cx="720.5" cy="267.8" r="16.1"/>
</g>
<g id="O">
	<path d="M444.1,38.9c79,0,133.3,56.7,133.3,130.2c-0.1,70.4-52.5,130.2-132.2,130.2c-79.4,0-133-56.6-133-130.2
		C312.2,98.7,361.3,38.9,444.1,38.9z M498.9,168.6c0-30.9-14.1-59.8-55.3-59.8c-38.7,0-54.4,30.2-54.4,59.8
		c0,30.6,17,60.5,56.6,60.5C476.7,229.1,498.9,208.4,498.9,168.6z"/>
	<circle class="st0" cx="444.8" cy="72.3" r="16.1"/>
	<circle class="st0" cx="513.5" cy="100.9" r="16.1"/>
	<circle class="st0" cx="541.5" cy="169.1" r="16.1"/>
	<circle class="st0" cx="513.1" cy="237.8" r="16.1"/>
	<circle class="st0" cx="444.8" cy="265.7" r="16.1"/>
	<circle class="st0" cx="376.4" cy="237.6" r="16.1"/>
	<circle class="st0" cx="348.2" cy="170.2" r="16.1"/>
	<circle class="st0" cx="376.4" cy="100.8" r="16.1"/>
</g>
<g id="J">
	<path d="M229.5,42.4l-0.4,169.8c-0.3,12.8-0.7,21-5.9,34.1c-2.9,7.3-7.8,16.8-17.5,27.1c-14.4,15.3-31.5,20-39.6,22.2
		c-12.3,3.4-22.9,3.6-29.7,3.7c-2.8,0-11.8,0.1-23.3-1.5c-7.4-1-13.6-2.4-18.5-3.7v-65.6c7.8,1.4,14.4,2.2,19.3,2.6
		c4.7,0.4,8.3,0.5,12.2,0.4c6.4-0.2,9.8-1.6,12.8-3.1c5.4-2.7,8.7-6.1,10.4-9.5c2.3-4.4,1.9-5.2,2.2-12.8l0.1-163.6L229.5,42.4
		L229.5,42.4z"/>
	<circle class="st0" cx="190.6" cy="78.1" r="16"/>
	<circle class="st0" cx="189.4" cy="131.1" r="16"/>
	<circle class="st0" cx="189.4" cy="184.1" r="16"/>
	<circle class="st0" cx="178.1" cy="238.5" r="16"/>
	<circle class="st0" cx="132" cy="264.1" r="16"/>
</g>
</svg>